<svg width="40" height="32" viewBox="0 0 40 32" fill="none" xmlns="http://www.w3.org/2000/svg">
<path d="M7.78491 1.68769C9.22181 0.592908 10.9783 0 12.7848 0H37.9632C38.6213 0 38.9033 0.835546 38.3799 1.23436L32.2151 5.93136C30.7782 7.02614 29.0217 7.61905 27.2152 7.61905H2.03675C1.37869 7.61905 1.09665 6.7835 1.6201 6.38469L7.78491 1.68769Z" fill="#39833C"/>
<path d="M7.78491 13.8782C9.22181 12.7835 10.9783 12.1906 12.7848 12.1906H37.9632C38.6213 12.1906 38.9033 13.0261 38.3799 13.4249L32.2151 18.1219C30.7782 19.2167 29.0217 19.8096 27.2152 19.8096H2.03675C1.37869 19.8096 1.09665 18.9741 1.6201 18.5752L7.78491 13.8782Z" fill="#39833C"/>
<path d="M7.78491 26.0688C9.22181 24.974 10.9783 24.3811 12.7848 24.3811H37.9632C38.6213 24.3811 38.9033 25.2166 38.3799 25.6155L32.2151 30.3125C30.7782 31.4072 29.0217 32.0002 27.2152 32.0002H2.03675C1.37869 32.0002 1.09665 31.1646 1.6201 30.7658L7.78491 26.0688Z" fill="#39833C"/>
</svg>
